<?xml version="1.0" standalone="no"?>
<!DOCTYPE svg PUBLIC "-//W3C//DTD SVG 20010904//EN"
 "http://www.w3.org/TR/2001/REC-SVG-20010904/DTD/svg10.dtd">
<svg version="1.0" xmlns="http://www.w3.org/2000/svg"
 width="512.000000pt" height="512.000000pt" viewBox="0 0 512.000000 512.000000"
 preserveAspectRatio="xMidYMid meet">

<g transform="translate(0.000000,512.000000) scale(0.100000,-0.100000)"
fill="#000000" stroke="none">
<path d="M2475 4575 c-215 -147 -600 -515 -809 -775 -535 -666 -742 -1363
-581 -1954 133 -491 510 -891 988 -1051 172 -57 255 -69 482 -70 233 0 294 9
486 71 477 154 864 560 994 1045 31 116 55 292 55 405 0 491 -224 1040 -636
1554 -186 233 -532 567 -767 742 -70 52 -84 58 -126 58 -35 0 -58 -7 -86 -25z
m-331 -1689 c281 -284 283 -286 420 -286 127 0 155 19 427 299 l236 242 136
-3 136 -3 -322 -327 c-247 -251 -334 -333 -372 -351 -159 -78 -336 -77 -489 0
-62 31 -95 63 -428 406 l-270 277 137 0 137 0 252 -254z m539 -641 c133 -35
164 -58 430 -328 136 -139 279 -287 318 -329 l71 -78 -135 0 -135 0 -237 245
c-280 289 -297 300 -435 300 -138 0 -155 -11 -435 -300 l-237 -245 -135 0
-135 0 61 68 c33 37 177 185 318 329 275 278 306 303 436 338 69 18 179 19
250 0z"/>
</g>
</svg>
